#!OML:ASF H:\Dans Jumps\Project 1\Capture day 1\Session 1\subject.ASF
:FULLY-SPECIFIED
:DEGREES
345
root 0.264814 19.9245 -3.47993 3.83859 3.58583 -1.35062
lowerback 5.78696 0.130212 -1.19865
upperback 4.20084 0.119909 1.66556
thorax 1.07472 0.0150874 2.37982
lowerneck -10.6312 -0.600937 -2.20779
upperneck 25.3549 -0.807901 1.74137
head 9.78619 -0.381343 0.893186
rclavicle 1.88845e-015 2.98177e-015
rhumerus -25.3368 -12.1722 -82.4686
rradius 29.2509
rwrist 28.3044
rhand -22.1472 -26.3484
rfingers 7.12502
rthumb 4.26665 -56.2854
lclavicle 1.88845e-015 2.98177e-015
lhumerus -24.3098 -1.59522 88.7862
lradius 17.8718
lwrist 16.3067
lhand -26.7821 -7.38175
lfingers 7.12502
lthumb -0.209598 22.5979
rfemur -25.1665 -3.80765 19.9963
rtibia 38.0027
rfoot 7.15394 -6.5972
rtoes 13.1439
lfemur -29.1948 6.18431 -18.609
ltibia 43.975
lfoot 3.6699 5.10557
ltoes 4.12934
346
root 0.264218 19.8541 -3.3037 4.00148 3.41261 -1.34726
lowerback 5.98731 0.210465 -1.24735
upperback 4.21647 0.22338 1.6152
thorax 0.974482 0.0672928 2.35001
lowerneck -10.7113 -0.602479 -2.1394
upperneck 25.4481 -0.837135 1.79309
head 9.83544 -0.3824 0.89673
rclavicle -5.81445e-015 -4.37326e-015
rhumerus -25.614 -12.4048 -82.5265
rradius 29.1021
rwrist 28.2522
rhand -22.2594 -26.4463
rfingers 7.12502
rthumb 4.15832 -56.3854
lclavicle -5.81445e-015 -4.37326e-015
lhumerus -24.7553 -1.13623 88.6521
lradius 17.4379
lwrist 15.9013
lhand -26.7943 -7.34882
lfingers 7.12502
lthumb -0.221456 22.6308
rfemur -26.2249 -3.78374 20.0427
rtibia 35.9249
rfoot 7.07953 -5.84482
rtoes 11.6561
lfemur -29.889 6.29687 -18.8061
ltibia 41.7644
lfoot 2.54932 4.79966
ltoes 2.54145
347
root 0.263837 19.7727 -3.12365 4.15984 3.24289 -1.37578
lowerback 6.15207 0.289174 -1.26277
upperback 4.22372 0.326245 1.57049
thorax 0.885533 0.119757 2.30683
lowerneck -10.7917 -0.603692 -2.06231
upperneck 25.5588 -0.867687 1.84263
head 9.89109 -0.38337 0.897995
rclavicle -1.49089e-016 -2.16675e-014
rhumerus -25.9203 -12.6156 -82.5795
rradius 28.9455
rwrist 28.2245
rhand -22.3635 -26.5338
rfingers 7.12502
rthumb 4.0578 -56.4749
lclavicle -1.49089e-016 -2.16675e-014
lhumerus -25.2335 -0.676262 88.5097
lradius 16.9985
lwrist 15.4955
lhand -26.8111 -7.3296
lfingers 7.12502
lthumb -0.237627 22.65
rfemur -27.2265 -3.78635 20.1337
rtibia 33.7775
rfoot 7.14944 -5.25079
rtoes 10.1644
lfemur -30.5083 6.38483 -18.9478
ltibia 39.4283
lfoot 1.4765 4.55837
ltoes 0.832307
348
root 0.263481 19.6802 -2.94002 4.30943 3.07786 -1.43112
lowerback 6.27942 0.366414 -1.25276
upperback 4.22436 0.428474 1.53171
thorax 0.810791 0.172229 2.25515
lowerneck -10.8562 -0.609583 -1.98997
upperneck 25.6695 -0.906905 1.90163
head 9.9441 -0.387665 0.902406
rclavicle -8.44835e-015 -1.31198e-014
rhumerus -26.2585 -12.793 -82.6304
rradius 28.7927
rwrist 28.2059
rhand -22.4709 -26.6304
rfingers 7.12502
rthumb 3.95401 -56.5735
lclavicle -8.44835e-015 -1.31198e-014
lhumerus -25.7206 -0.188937 88.3505
lradius 16.5265
lwrist 15.0304
lhand -26.8117 -7.31791
lfingers 7.12502
lthumb -0.238203 22.6617
rfemur -28.1734 -3.81736 20.2653
rtibia 31.6102
rfoot 7.29717 -4.82202
rtoes 8.73904
lfemur -31.0509 6.44936 -19.0377
ltibia 36.9951
lfoot 0.387866 4.40577
ltoes -0.972187
349
root 0.26296 19.5768 -2.75235 4.43612 2.92658 -1.50478
lowerback 6.35619 0.43955 -1.22598
upperback 4.22905 0.526324 1.49911
thorax 0.768742 0.222394 2.2006
lowerneck -10.885 -0.619642 -1.92544
upperneck 25.7592 -0.952785 1.96769
head 9.98294 -0.395023 0.909762
rclavicle 5.46658e-016 6.75868e-015
rhumerus -26.6144 -12.9544 -82.6742
rradius 28.6282
rwrist 28.2083
rhand -22.6136 -26.7207
rfingers 7.12502
rthumb 3.81623 -56.6663
lclavicle 5.46658e-016 6.75868e-015
lhumerus -26.1971 0.356294 88.1641
lradius 15.9992
lwrist 14.4381
lhand -26.7837 -7.32837
lfingers 7.12502
lthumb -0.211158 22.6513
rfemur -29.0526 -3.88939 20.4286
rtibia 29.4822
rfoot 7.44233 -4.51051
rtoes 7.40348
lfemur -31.502 6.47972 -19.0808
ltibia 34.5
lfoot -0.767854 4.34765
ltoes -2.92898
350
root 0.262266 19.4618 -2.56044 4.5323 2.78597 -1.58727
lowerback 6.38094 0.509193 -1.19649
upperback 4.24082 0.619952 1.47235
thorax 0.763215 0.270023 2.15102
lowerneck -10.882 -0.634774 -1.86869
upperneck 25.8327 -1.00524 2.03617
head 10.0101 -0.40595 0.918465
rclavicle -9.39258e-015 9.93923e-016
rhumerus -26.9783 -13.1086 -82.7097
rradius 28.4484
rwrist 28.2344
rhand -22.7877 -26.8084
rfingers 7.12502
rthumb 3.64815 -56.7569
lclavicle -9.39258e-015 9.93923e-016
lhumerus -26.6471 0.977139 87.9408
lradius 15.4045
lwrist 13.6838
lhand -26.7143 -7.28229
lfingers 7.12502
lthumb -0.144126 22.6974
rfemur -29.8682 -4.00358 20.6113
rtibia 27.4651
rfoot 7.58231 -4.26345
rtoes 6.31006
lfemur -31.8591 6.47485 -19.0834
ltibia 31.9924
lfoot -1.97761 4.36589
ltoes -5.02074
351
root 0.261317 19.3343 -2.36389 4.58528 2.65949 -1.66716
lowerback 6.34592 0.577702 -1.17302
upperback 4.2679 0.712071 1.45076
thorax 0.806762 0.316172 2.11083
lowerneck -10.8426 -0.657559 -1.82817
upperneck 25.8844 -1.06619 2.1084
head 10.0226 -0.422052 0.930181
rclavicle 2.28602e-015 0
rhumerus -27.3278 -13.2623 -82.7269
rradius 28.2276
rwrist 28.2668
rhand -23.0131 -26.9099
rfingers 7.12502
rthumb 3.43042 -56.862
lclavicle 2.28602e-015 0
lhumerus -27.0539 1.73288 87.6615
lradius 14.7234
lwrist 12.6918
lhand -26.5724 -7.18703
lfingers 7.12502
lthumb -0.00708485 22.7927
rfemur -30.6195 -4.17335 20.802
rtibia 25.64
rfoot 7.76499 -4.02661
rtoes 5.48004
lfemur -32.1191 6.42189 -19.0515
ltibia 29.5384
lfoot -3.20315 4.43359
ltoes -7.25916
352
root 0.260175 19.1928 -2.16256 4.57989 2.5466 -1.74687
lowerback 6.25542 0.645281 -1.15334
upperback 4.31722 0.803003 1.43556
thorax 0.904115 0.360965 2.0803
lowerneck -10.7676 -0.687754 -1.80324
upperneck 25.9158 -1.13496 2.18295
head 10.0213 -0.443162 0.944397
rclavicle 9.0447e-015 9.14409e-015
rhumerus -27.644 -13.415 -82.7252
rradius 27.9611
rwrist 28.3138
rhand -23.2504 -27.0324
rfingers 7.12502
rthumb 3.20133 -56.9881
lclavicle 9.0447e-015 9.14409e-015
lhumerus -27.3976 2.69971 87.292
lradius 13.9375
lwrist 11.3878
lhand -26.3423 -7.01254
lfingers 7.12502
lthumb 0.215129 22.9671
rfemur -31.3063 -4.40497 21.0063
rtibia 24.0954
rfoot 8.04593 -3.76402
rtoes 4.88585
lfemur -32.2885 6.31364 -18.9765
ltibia 27.2266
lfoot -4.38331 4.5249
ltoes -9.56408
353
root 0.259009 19.0362 -1.95664 4.50009 2.44727 -1.8173
lowerback 6.12927 0.713982 -1.14181
upperback 4.38194 0.895204 1.42259
thorax 1.0371 0.405819 2.05748
lowerneck -10.6502 -0.727241 -1.79372
upperneck 25.9441 -1.21507 2.26218
head 10.011 -0.470673 0.961654
rclavicle 4.44781e-015 9.93923e-016
rhumerus -27.9298 -13.5843 -82.6931
rradius 27.6375
rwrist 28.4018
rhand -23.4864 -27.187
rfingers 7.12502
rthumb 2.97341 -57.1461
lclavicle 4.44781e-015 9.93923e-016
lhumerus -27.6908 3.96311 86.7829
lradius 13.0392
lwrist 9.68924
lhand -25.9945 -6.77369
lfingers 7.12502
lthumb 0.551028 23.2053
rfemur -31.923 -4.7116 21.2208
rtibia 22.9168
rfoot 8.44015 -3.4389
rtoes 4.43779
lfemur -32.3805 6.14745 -18.8692
ltibia 25.161
lfoot -5.46976 4.6219
ltoes -11.7778
354
root 0.258105 18.8636 -1.74672 4.32499 2.36577 -1.87755
lowerback 6.00045 0.782278 -1.13577
upperback 4.46232 0.986625 1.41106
thorax 1.18783 0.449926 2.03993
lowerneck -10.5194 -0.772575 -1.78196
upperneck 25.9962 -1.30145 2.33054
head 10.0069 -0.502061 0.974231
rclavicle 1.46604e-014 4.96962e-016
rhumerus -28.1732 -13.7772 -82.6247
rradius 27.2519
rwrist 28.5565
rhand -23.7156 -27.3544
rfingers 7.12502
rthumb 2.75199 -57.3163
lclavicle 1.46604e-014 4.96962e-016
lhumerus -27.9382 5.63444 86.0751
lradius 12.0282
lwrist 7.46002
lhand -25.5508 -6.45757
lfingers 7.12502
lthumb 0.979614 23.5199
rfemur -32.4509 -5.08834 21.443
rtibia 22.1757
rfoot 8.89696 -3.02765
rtoes 4.03318
lfemur -32.4062 5.91455 -18.7327
ltibia 23.453
lfoot -6.44499 4.72621
ltoes -13.7677
355
root 0.257494 18.6749 -1.53408 4.03662 2.29922 -1.93467
lowerback 5.907 0.850401 -1.12999
upperback 4.55228 1.07762 1.40318
thorax 1.32892 0.493822 2.02638
lowerneck -10.3947 -0.820457 -1.76095
upperneck 26.0987 -1.38938 2.38109
head 10.0222 -0.53502 0.979196
rclavicle -9.98893e-015 -1.73937e-014
rhumerus -28.368 -14.0194 -82.5082
rradius 26.797
rwrist 28.8243
rhand -23.9428 -27.5247
rfingers 7.12502
rthumb 2.53257 -57.4895
lclavicle -9.98893e-015 -1.73937e-014
lhumerus -28.1788 7.84905 85.0869
lradius 10.925
lwrist 4.54384
lhand -25.0155 -6.12376
lfingers 7.12502
lthumb 1.49662 23.8507
rfemur -32.8638 -5.46451 21.6542
rtibia 21.9205
rfoot 9.34217 -2.55474
rtoes 3.63152
lfemur -32.3793 5.61924 -18.5665
ltibia 22.2039
lfoot -7.3099 4.85308
ltoes -15.4113
356
root 0.257334 18.4705 -1.3203 3.62011 2.24483 -1.98808
lowerback 5.88641 0.915643 -1.12733
upperback 4.64714 1.16425 1.39938
thorax 1.43482 0.535717 2.01829
lowerneck -10.3025 -0.868818 -1.73199
upperneck 26.2742 -1.47645 2.41571
head 10.0701 -0.568046 0.977786
rclavicle -1.2424e-015 -9.93923e-016
rhumerus -28.5162 -14.3144 -82.3411
rradius 26.2877
rwrist 29.2087
rhand -24.1513 -27.6983
rfingers 7.12502
rthumb 2.33123 -57.6653
lclavicle -1.2424e-015 -9.93923e-016
lhumerus -28.238 7.98543 85.2289
lradius 9.76628
lwrist 3.87901
lhand -24.884 -5.61682
lfingers 7.12502
lthumb 1.62363 24.3567
rfemur -33.1276 -5.73798 21.807
rtibia 22.1717
rfoot 9.67957 -2.06315
rtoes 3.19628
lfemur -32.3092 5.26847 -18.3831
ltibia 21.4929
lfoot -8.07088 5.0183
ltoes -16.6881
